<svg width="32" height="32" viewBox="0 0 32 32" fill="none" xmlns="http://www.w3.org/2000/svg">
<path d="M9.97266 24.4673L14.106 27.6673C14.6393 28.2006 15.8393 28.4673 16.6393 28.4673H21.706C23.306 28.4673 25.0393 27.2673 25.4393 25.6673L28.6393 15.9339C29.306 14.0673 28.106 12.4673 26.106 12.4673H20.7727C19.9727 12.4673 19.306 11.8006 19.4393 10.8673L20.106 6.60061C20.3727 5.40061 19.5727 4.06728 18.3727 3.66728C17.306 3.26728 15.9727 3.80061 15.4393 4.60061L9.97266 12.7339" stroke="#0078DC" stroke-width="2" stroke-miterlimit="10"/>
<path d="M3.17188 24.4633V11.3966C3.17188 9.52995 3.97187 8.86328 5.83854 8.86328H7.17187C9.03854 8.86328 9.83854 9.52995 9.83854 11.3966V24.4633C9.83854 26.3299 9.03854 26.9966 7.17187 26.9966H5.83854C3.97187 26.9966 3.17188 26.3299 3.17188 24.4633Z" stroke="#0078DC" stroke-width="2" stroke-linecap="round" stroke-linejoin="round"/>
</svg>
