<svg width="32" height="32" viewBox="0 0 32 32" fill="none" xmlns="http://www.w3.org/2000/svg">
<path d="M0 15.36C0 8.11733 0 4.50133 2.24 2.24C4.512 0 8.128 0 15.36 0H16.64C23.8827 0 27.4987 0 29.76 2.24C32 4.512 32 8.128 32 15.36V16.64C32 23.8827 32 27.4987 29.76 29.76C27.488 32 23.872 32 16.64 32H15.36C8.11733 32 4.50133 32 2.24 29.76C0 27.488 0 23.872 0 16.64V15.36Z" fill="white"/>
<path d="M17.0251 23.057C9.7291 23.057 5.5691 18.065 5.39844 9.74504H9.06777C9.1851 15.8464 11.8731 18.4277 14.0064 18.961V9.74504H17.4518V15.0037C19.5531 14.7797 21.7718 12.3797 22.5184 9.73438H25.9531C25.6731 11.1037 25.1136 12.4006 24.3098 13.544C23.5059 14.6874 22.4749 15.6527 21.2811 16.3797C22.6133 17.0428 23.7898 17.9807 24.733 19.1317C25.6762 20.2827 26.3647 21.6205 26.7531 23.057H22.9664C22.1558 20.529 20.1291 18.5664 17.4518 18.2997V23.057H17.0358H17.0251Z" fill="#0077FF"/>
</svg>
